<?xml version="1.0" encoding="utf-8"?>
<!-- Generator: Adobe Illustrator 26.0.3, SVG Export Plug-In . SVG Version: 6.00 Build 0)  -->
<svg version="1.1" id="Layer_1" xmlns="http://www.w3.org/2000/svg" xmlns:xlink="http://www.w3.org/1999/xlink" x="0px" y="0px"
	 viewBox="0 0 428.09 52" style="enable-background:new 0 0 428.09 52;" xml:space="preserve">
<style type="text/css">
	.st0{fill:#FFFFFF;}
	.st1{fill:none;stroke:#FFFFFF;stroke-width:1.6209;stroke-miterlimit:10;}
	.st2{fill:url(#SVGID_1_);}
</style>
<path class="st0" d="M252.51,23.79h-5.74v15.94h-2.34V23.79h-5.73v-1.93h13.82L252.51,23.79L252.51,23.79z"/>
<path class="st0" d="M260.31,39.99c-1.8,0-3.26-0.59-4.39-1.77c-1.13-1.18-1.69-2.76-1.69-4.74v-0.42c0-1.32,0.25-2.49,0.75-3.53
	s1.21-1.84,2.11-2.43c0.9-0.58,1.88-0.88,2.94-0.88c1.73,0,3.07,0.57,4.02,1.71c0.96,1.14,1.44,2.76,1.44,4.88v0.94h-8.99
	c0.03,1.31,0.42,2.37,1.15,3.17c0.73,0.81,1.66,1.21,2.79,1.21c0.8,0,1.48-0.16,2.04-0.49s1.04-0.76,1.46-1.3l1.39,1.08
	C264.21,39.12,262.54,39.99,260.31,39.99z M260.03,28.07c-0.92,0-1.68,0.33-2.31,1c-0.62,0.67-1.01,1.6-1.15,2.8h6.65v-0.17
	c-0.07-1.15-0.38-2.05-0.93-2.68C261.73,28.4,260.98,28.07,260.03,28.07z"/>
<path class="st0" d="M273.44,38.12c0.81,0,1.52-0.25,2.12-0.74s0.94-1.1,1.01-1.84h2.15c-0.04,0.76-0.3,1.48-0.79,2.17
	c-0.48,0.69-1.13,1.23-1.93,1.64s-1.66,0.61-2.56,0.61c-1.81,0-3.25-0.6-4.31-1.81c-1.07-1.21-1.6-2.86-1.6-4.95v-0.38
	c0-1.29,0.24-2.44,0.71-3.45s1.16-1.79,2.04-2.34c0.89-0.56,1.94-0.83,3.15-0.83c1.49,0,2.73,0.45,3.71,1.34
	c0.99,0.89,1.51,2.05,1.58,3.47h-2.15c-0.07-0.86-0.39-1.56-0.98-2.12c-0.58-0.55-1.31-0.83-2.17-0.83c-1.15,0-2.05,0.42-2.68,1.25
	s-0.95,2.03-0.95,3.6v0.43c0,1.53,0.31,2.71,0.94,3.53S272.27,38.12,273.44,38.12z"/>
<path class="st0" d="M283.54,28.07c1.01-1.23,2.31-1.85,3.93-1.85c2.81,0,4.22,1.58,4.25,4.75v8.77h-2.27v-8.78
	c-0.01-0.96-0.23-1.67-0.66-2.12s-1.1-0.69-2.01-0.69c-0.74,0-1.38,0.2-1.94,0.59s-0.99,0.91-1.3,1.55v9.46h-2.27V20.9h2.27V28.07z"
	/>
<path class="st0" d="M314.83,34.07c-0.22,1.89-0.92,3.35-2.09,4.37s-2.73,1.54-4.68,1.54c-2.11,0-3.8-0.76-5.07-2.27
	c-1.27-1.51-1.91-3.54-1.91-6.07v-1.72c0-1.66,0.3-3.12,0.89-4.38s1.43-2.23,2.52-2.9s2.35-1.01,3.78-1.01
	c1.9,0,3.42,0.53,4.56,1.59c1.15,1.06,1.81,2.53,2,4.4h-2.37c-0.2-1.43-0.65-2.46-1.33-3.1s-1.64-0.96-2.86-0.96
	c-1.51,0-2.69,0.56-3.54,1.67s-1.28,2.7-1.28,4.75v1.73c0,1.94,0.41,3.48,1.21,4.63c0.81,1.15,1.94,1.72,3.4,1.72
	c1.31,0,2.31-0.3,3.01-0.89s1.16-1.63,1.39-3.1L314.83,34.07L314.83,34.07z"/>
<path class="st0" d="M317.08,32.97c0-1.3,0.25-2.47,0.77-3.51c0.51-1.04,1.22-1.84,2.13-2.4s1.95-0.85,3.12-0.85
	c1.81,0,3.27,0.63,4.39,1.88c1.12,1.25,1.67,2.92,1.67,4.99v0.16c0,1.29-0.25,2.45-0.74,3.48s-1.2,1.83-2.12,2.4
	s-1.98,0.86-3.17,0.86c-1.8,0-3.26-0.62-4.37-1.88c-1.12-1.25-1.67-2.91-1.67-4.97v-0.16H317.08z M319.36,33.24
	c0,1.47,0.34,2.65,1.02,3.55c0.68,0.89,1.6,1.34,2.74,1.34c1.15,0,2.07-0.45,2.75-1.36c0.68-0.9,1.02-2.17,1.02-3.8
	c0-1.46-0.35-2.64-1.04-3.54s-1.61-1.36-2.75-1.36c-1.12,0-2.02,0.45-2.71,1.34C319.71,30.3,319.36,31.58,319.36,33.24z"/>
<path class="st0" d="M334.15,26.46l0.06,1.47c0.97-1.15,2.29-1.72,3.94-1.72c1.86,0,3.12,0.71,3.79,2.13
	c0.44-0.64,1.02-1.15,1.72-1.55c0.71-0.39,1.54-0.59,2.51-0.59c2.91,0,4.39,1.54,4.44,4.62v8.9h-2.27v-8.76
	c0-0.95-0.22-1.66-0.65-2.13s-1.16-0.71-2.18-0.71c-0.84,0-1.54,0.25-2.1,0.75s-0.88,1.18-0.97,2.03v8.81h-2.28V31
	c0-1.93-0.94-2.9-2.83-2.9c-1.49,0-2.51,0.63-3.05,1.9v9.69H332V26.41h2.15V26.46z"/>
<path class="st0" d="M356.17,26.46l0.06,1.47c0.97-1.15,2.29-1.72,3.94-1.72c1.86,0,3.12,0.71,3.79,2.13
	c0.44-0.64,1.02-1.15,1.72-1.55c0.71-0.39,1.54-0.59,2.51-0.59c2.91,0,4.39,1.54,4.44,4.62v8.9h-2.27v-8.76
	c0-0.95-0.22-1.66-0.65-2.13s-1.16-0.71-2.18-0.71c-0.84,0-1.54,0.25-2.1,0.75s-0.88,1.18-0.97,2.03v8.81h-2.28V31
	c0-1.93-0.94-2.9-2.83-2.9c-1.49,0-2.51,0.63-3.05,1.9v9.69h-2.27V26.41h2.14V26.46z"/>
<path class="st0" d="M384.26,38.43c-0.88,1.04-2.18,1.56-3.89,1.56c-1.42,0-2.49-0.41-3.23-1.23c-0.74-0.82-1.11-2.04-1.12-3.65
	v-8.64h2.27v8.58c0,2.01,0.82,3.02,2.45,3.02c1.73,0,2.89-0.65,3.46-1.94v-9.66h2.27v13.28h-2.16L384.26,38.43z"/>
<path class="st0" d="M392.06,26.46l0.07,1.67c1.01-1.28,2.34-1.91,3.97-1.91c2.81,0,4.22,1.58,4.25,4.75v8.77h-2.27v-8.78
	c-0.01-0.96-0.23-1.67-0.66-2.12s-1.1-0.69-2.01-0.69c-0.74,0-1.38,0.2-1.94,0.59s-0.99,0.91-1.3,1.55v9.46h-2.27V26.47h2.16V26.46z
	"/>
<path class="st0" d="M403.79,22.93c0-0.37,0.11-0.68,0.34-0.93c0.22-0.25,0.56-0.38,1-0.38s0.78,0.13,1.01,0.38s0.34,0.56,0.34,0.93
	s-0.12,0.67-0.34,0.92c-0.23,0.25-0.56,0.37-1.01,0.37s-0.78-0.12-1-0.37C403.9,23.61,403.79,23.3,403.79,22.93z M406.24,39.74
	h-2.27V26.46h2.27V39.74z"/>
<path class="st0" d="M412.95,23.24v3.21h2.48v1.75h-2.48v8.24c0,0.53,0.11,0.93,0.33,1.2s0.6,0.4,1.13,0.4
	c0.26,0,0.62-0.05,1.08-0.15v1.83c-0.6,0.16-1.18,0.24-1.74,0.24c-1.01,0-1.78-0.31-2.29-0.92c-0.52-0.61-0.77-1.48-0.77-2.61v-8.23
	h-2.42v-1.75h2.42v-3.21L412.95,23.24L412.95,23.24z"/>
<path class="st0" d="M422.42,36.4l3.09-9.95h2.43l-5.34,15.32c-0.83,2.21-2.14,3.31-3.94,3.31l-0.43-0.04l-0.85-0.16v-1.84
	l0.61,0.05c0.77,0,1.37-0.16,1.8-0.47s0.78-0.88,1.06-1.71l0.5-1.35l-4.74-13.13h2.48L422.42,36.4z"/>
<line class="st1" x1="218.43" y1="9.79" x2="218.43" y2="45.74"/>
<g>
	
		<linearGradient id="SVGID_1_" gradientUnits="userSpaceOnUse" x1="1" y1="37.36" x2="33.35" y2="37.36" gradientTransform="matrix(1 0 0 1 0 -10)">
		<stop  offset="0" style="stop-color:#8E3CF7"/>
		<stop  offset="1" style="stop-color:#3CC1B7"/>
	</linearGradient>
	<path class="st2" d="M18.58,23.97c-5.23-1.35-10.04-3.06-10.04-9.07H1c0,11.28,7.37,13.95,14.77,15.84
		c5.23,1.35,10.04,2.57,10.04,9.07h7.54C33.35,28.43,25.88,25.85,18.58,23.97z"/>
	<path class="st0" d="M7.09,47.35h11.1c4.16,0,7.62-3.2,7.62-7.54H7.09V47.35z"/>
	<path class="st0" d="M27.23,7.35H16.16c-4.16,0-7.62,3.2-7.62,7.54h18.68L27.23,7.35L27.23,7.35z"/>
</g>
<path class="st0" d="M50.21,29.13c-3.02-0.46-4.23-1.17-4.23-2.21s1.35-1.57,2.7-1.57c1.46,0,3.02,0.78,3.77,2.24l3.35-2.06
	c-1.32-2.56-3.59-3.95-7.12-3.95c-3.63,0-6.76,2.21-6.76,5.48c0,3.1,2.21,4.84,6.01,5.41c2.88,0.46,4.09,1.07,4.09,2.24
	c0,1-1.14,1.74-2.99,1.74c-1.81,0-3.27-1.25-3.91-2.67l-3.74,2.06c1.07,2.7,3.95,4.38,7.54,4.38c4.09,0,7.22-2.06,7.22-5.66
	C56.15,31.1,53.84,29.71,50.21,29.13z"/>
<path class="st0" d="M67.16,21.58c-5.44,0-9.47,3.88-9.47,9.32c0,5.44,4.02,9.32,9.47,9.32c5.48,0,9.5-3.88,9.5-9.32
	C76.66,25.46,72.64,21.58,67.16,21.58z M67.16,36.4c-3.06,0-5.27-2.24-5.27-5.48s2.21-5.48,5.27-5.48s5.3,2.24,5.3,5.48
	S70.22,36.4,67.16,36.4z"/>
<path class="st0" d="M172.54,21.58c-5.44,0-9.18,3.88-9.18,9.32c0,5.44,3.74,9.32,9.18,9.32c3.99,0,6.23-1.35,8.01-3.63l-3.2-2.38
	c-1.07,1.39-2.46,2.31-4.8,2.31c-2.74,0-4.63-1.78-5.02-4.45h13.99v-1.53C181.51,25.29,177.88,21.58,172.54,21.58z M167.74,28.71
	c0.71-2.14,2.42-3.56,4.8-3.56c2.56,0,4.23,1.6,4.77,3.56H167.74z"/>
<path class="st0" d="M186.63,22.01l-2.85,6.9h1.6l0.6-1.57h2.78l0.6,1.57h1.6l-2.85-6.9H186.63z M186.49,26.07l0.89-2.35l0.89,2.35
	H186.49z"/>
<path class="st0" d="M97.17,16.74h-4.06v5.27h-1.89h-6.55v-3.31h4.91V14.9H84.5c-2.49,0-3.88,1.35-3.88,3.81v3.31h-3.7v3.81h3.7
	v13.99h4.06V25.82h6.55h1.89v10.14c0,2.49,1.35,3.84,3.88,3.84h5.16v-3.84h-4.98V25.82h4.98v-3.81h-4.98v-5.27H97.17z"/>
<path class="st0" d="M194.29,25.29v1.14h2.21c-0.25,0.71-0.78,1.28-1.81,1.28c-1.28,0-2.14-1-2.14-2.24c0-1.25,0.89-2.24,2.1-2.24
	c0.93,0,1.46,0.43,1.78,0.93l1.17-0.78c-0.53-0.89-1.57-1.46-2.95-1.46c-1.99,0-3.49,1.6-3.49,3.56c0,1.96,1.42,3.56,3.49,3.56
	c1.99,0,3.35-1.39,3.35-3.35V25.3L194.29,25.29L194.29,25.29z"/>
<path class="st0" d="M151.97,25.85V39.8h4.06V25.85h6.73v-3.84h-6.9C153.32,22.01,151.97,23.36,151.97,25.85z"/>
<polygon class="st0" points="122.62,33.93 119.27,22.01 114.5,22.01 111.16,33.93 107.88,22.01 103.47,22.01 108.81,39.8 
	113.22,39.8 116.89,26.9 120.55,39.8 124.96,39.8 130.3,22.01 125.93,22.01 "/>
<path class="st0" d="M144.73,23.97c-1-1.42-2.85-2.38-5.34-2.38c-5.16,0-8.86,3.84-8.86,9.32c0,5.48,3.7,9.32,8.86,9.32
	c2.74,0,4.34-1.1,5.34-2.46v2.03h4.06V22.01h-4.06V23.97z M139.82,36.43c-3.02,0-5.12-2.21-5.12-5.52s2.1-5.52,5.12-5.52
	c3.03,0,5.12,2.21,5.12,5.52C144.94,34.22,142.84,36.43,139.82,36.43z"/>
</svg>
